<svg xmlns="http://www.w3.org/2000/svg" xmlns:xlink="http://www.w3.org/1999/xlink" contentStyleType="text/css" height="482px" preserveAspectRatio="none" style="width:595px;height:482px;background:#FFFFFF;" version="1.1" viewBox="0 0 595 482" width="595px" zoomAndPan="magnify"><title>Eksempel p&#229; enkel flyt 2</title><defs/><g><text fill="#000000" font-family="sans-serif" font-size="14" font-weight="bold" lengthAdjust="spacing" textLength="194.0859" x="196.5" y="40.6357">Eksempel p&#229; enkel flyt 2</text><rect fill="none" height="218.8984" style="stroke:#000000;stroke-width:1.5;" width="568.0859" x="10" y="120.2344"/><line style="stroke:#181818;stroke-width:0.5;stroke-dasharray:5.0,5.0;" x1="86" x2="86" y1="103.2344" y2="414.3984"/><line style="stroke:#181818;stroke-width:0.5;stroke-dasharray:5.0,5.0;" x1="372.6963" x2="372.6963" y1="103.2344" y2="414.3984"/><line style="stroke:#181818;stroke-width:0.5;stroke-dasharray:5.0,5.0;" x1="534.9053" x2="534.9053" y1="299.3516" y2="414.3984"/><rect fill="#90EE90" height="30.2969" rx="2.5" ry="2.5" style="stroke:#181818;stroke-width:0.5;" width="133.2666" x="20" y="71.9375"/><text fill="#000000" font-family="sans-serif" font-size="14" lengthAdjust="spacing" textLength="119.2666" x="27" y="91.9326">Klient / fagystem</text><rect fill="#90EE90" height="30.2969" rx="2.5" ry="2.5" style="stroke:#181818;stroke-width:0.5;" width="133.2666" x="20" y="413.3984"/><text fill="#000000" font-family="sans-serif" font-size="14" lengthAdjust="spacing" textLength="119.2666" x="27" y="433.3936">Klient / fagystem</text><text fill="#000000" font-family="sans-serif" font-size="14" lengthAdjust="spacing" textLength="93.0918" x="323.6963" y="99.9326">LMR FHIR API</text><path d="M352.7422,58.9375 L352.7422,82.9375 M352.7422,70.9375 L369.7422,70.9375 " fill="none" style="stroke:#181818;stroke-width:0.5;"/><ellipse cx="381.7422" cy="70.9375" fill="#FFFF00" rx="12" ry="12" style="stroke:#181818;stroke-width:0.5;"/><text fill="#000000" font-family="sans-serif" font-size="14" lengthAdjust="spacing" textLength="93.0918" x="323.6963" y="426.3936">LMR FHIR API</text><path d="M352.7422,433.6953 L352.7422,457.6953 M352.7422,445.6953 L369.7422,445.6953 " fill="none" style="stroke:#181818;stroke-width:0.5;"/><ellipse cx="381.7422" cy="445.6953" fill="#FFFF00" rx="12" ry="12" style="stroke:#181818;stroke-width:0.5;"/><rect fill="#E2E2F0" height="30.2969" rx="2.5" ry="2.5" style="stroke:#181818;stroke-width:0.5;" width="65.1807" x="502.9053" y="413.3984"/><text fill="#000000" font-family="sans-serif" font-size="14" lengthAdjust="spacing" textLength="51.1807" x="509.9053" y="433.3936">Pasient</text><path d="M10,120.2344 L74.4429,120.2344 L74.4429,127.3672 L64.4429,137.3672 L10,137.3672 L10,120.2344 " fill="#EEEEEE" style="stroke:#000000;stroke-width:1.5;"/><rect fill="none" height="218.8984" style="stroke:#000000;stroke-width:1.5;" width="568.0859" x="10" y="120.2344"/><text fill="#000000" font-family="sans-serif" font-size="13" font-weight="bold" lengthAdjust="spacing" textLength="19.4429" x="25" y="133.3013">alt</text><text fill="#000000" font-family="sans-serif" font-size="11" font-weight="bold" lengthAdjust="spacing" textLength="125.3882" x="89.4429" y="132.4448">[Registrere Pasient]</text><polygon fill="#181818" points="361.2422,154.5,371.2422,158.5,361.2422,162.5,365.2422,158.5" style="stroke:#181818;stroke-width:1;"/><line style="stroke:#181818;stroke-width:1;" x1="86.6333" x2="367.2422" y1="158.5" y2="158.5"/><text fill="#000000" font-family="sans-serif" font-size="13" lengthAdjust="spacing" textLength="175.5254" x="93.6333" y="153.4341">S&#248;k p&#229; Pasient (f.eks. FNR)</text><polygon fill="#181818" points="97.6333,183.6328,87.6333,187.6328,97.6333,191.6328,93.6333,187.6328" style="stroke:#181818;stroke-width:1;"/><line style="stroke:#181818;stroke-width:1;" x1="91.6333" x2="372.2422" y1="187.6328" y2="187.6328"/><text fill="#000000" font-family="sans-serif" font-size="13" lengthAdjust="spacing" textLength="262.6089" x="103.6333" y="182.5669">Return&#233;r svar p&#229; s&#248;k (1..*  ID = positivt)</text><line style="stroke:#000000;stroke-width:1;stroke-dasharray:2.0,2.0;" x1="10" x2="578.0859" y1="196.6328" y2="196.6328"/><text fill="#000000" font-family="sans-serif" font-size="11" font-weight="bold" lengthAdjust="spacing" textLength="66.4404" x="15" y="206.8433">[Hvis ikke]</text><polygon fill="#181818" points="97.6333,227.5703,87.6333,231.5703,97.6333,235.5703,93.6333,231.5703" style="stroke:#181818;stroke-width:1;"/><line style="stroke:#181818;stroke-width:1;stroke-dasharray:2.0,2.0;" x1="91.6333" x2="372.2422" y1="231.5703" y2="231.5703"/><text fill="#000000" font-family="sans-serif" font-size="13" lengthAdjust="spacing" textLength="244.2324" x="103.6333" y="226.5044">Retun&#233;r svar p&#229; s&#248;k (0 ID = negativt)</text><polygon fill="#181818" points="361.2422,256.7031,371.2422,260.7031,361.2422,264.7031,365.2422,260.7031" style="stroke:#181818;stroke-width:1;"/><line style="stroke:#181818;stroke-width:1;" x1="86.6333" x2="367.2422" y1="260.7031" y2="260.7031"/><text fill="#000000" font-family="sans-serif" font-size="13" lengthAdjust="spacing" textLength="84.0874" x="93.6333" y="255.6372">Skriv Pasient</text><polygon fill="#181818" points="490.9053,285.8359,500.9053,289.8359,490.9053,293.8359,494.9053,289.8359" style="stroke:#181818;stroke-width:1;"/><line style="stroke:#181818;stroke-width:1;" x1="373.2422" x2="496.9053" y1="289.8359" y2="289.8359"/><text fill="#000000" font-family="sans-serif" font-size="13" lengthAdjust="spacing" textLength="105.6631" x="380.2422" y="284.77">opprettPasient()</text><rect fill="#E2E2F0" height="30.2969" rx="2.5" ry="2.5" style="stroke:#181818;stroke-width:0.5;" width="65.1807" x="502.9053" y="268.7031"/><text fill="#000000" font-family="sans-serif" font-size="14" lengthAdjust="spacing" textLength="51.1807" x="509.9053" y="288.6982">Pasient</text><polygon fill="#181818" points="97.6333,327.1328,87.6333,331.1328,97.6333,335.1328,93.6333,331.1328" style="stroke:#181818;stroke-width:1;"/><line style="stroke:#181818;stroke-width:1;" x1="91.6333" x2="372.2422" y1="331.1328" y2="331.1328"/><text fill="#000000" font-family="sans-serif" font-size="13" lengthAdjust="spacing" textLength="75.2705" x="103.6333" y="326.0669">Return&#233;r ID</text><polygon fill="#181818" points="361.2422,363.2656,371.2422,367.2656,361.2422,371.2656,365.2422,367.2656" style="stroke:#181818;stroke-width:1;"/><line style="stroke:#181818;stroke-width:1;" x1="86.6333" x2="367.2422" y1="367.2656" y2="367.2656"/><text fill="#000000" font-family="sans-serif" font-size="13" lengthAdjust="spacing" textLength="110.8872" x="93.6333" y="362.1997">Hent Pasient (ID)</text><polygon fill="#181818" points="97.6333,392.3984,87.6333,396.3984,97.6333,400.3984,93.6333,396.3984" style="stroke:#181818;stroke-width:1;"/><line style="stroke:#181818;stroke-width:1;" x1="91.6333" x2="372.2422" y1="396.3984" y2="396.3984"/><text fill="#000000" font-family="sans-serif" font-size="13" lengthAdjust="spacing" textLength="108.9512" x="103.6333" y="391.3325">Return&#233;r Pasient</text><text fill="#888888" font-family="sans-serif" font-size="10" lengthAdjust="spacing" textLength="189.7217" x="397.3643" y="14.2822">Legemiddeldata fra institusjon til LMR</text><text fill="#888888" font-family="sans-serif" font-size="10" lengthAdjust="spacing" textLength="147.041" x="220.0225" y="471.9775">Folkehelseinstituttet / Vali AS</text><!--SRC=[RL3DJkCm4BxxAJw5Iq5gsTqZOf4gbQfH0Q5KsliicQI3NJkofqLz80xx1dllYwsJZO13Rnvz_qvMV4UHTjXigGvlubiqv18RewAEKTpRnBkE7RhJEzZR_6hSKV6ZC5kccYEA1svv9tNDhYObD94WFcNzFhq63nM7XyUgC4q8slENmLdUSauPQQgikCOlSeBvfZ0cLr9vaOwyebWxOT_Z3RN7fBmhG0bhN3Xfjzf6Pcz-XxslAHvpcSSAorLPOVvS3iGvBexiN7WpXfoYubQIHewCPqgzirbZUfTfDzYS_jfXvuXWqipOfXcMJzMbcVUqTQPLhFleJtyYqe7Y84YzSl9zDhi2oWL-eWj9L0vwQOpfbs9ra0InbdFSxNGwvFL6vto-_VVmtDBeyLdHHZbyD3SlaKa_bmmLn-C6eUiYguxt9DkScL0kSa5VVubOzSi_Vg1Sd5q-uly0]--></g></svg>