<svg xmlns="http://www.w3.org/2000/svg" xmlns:xlink="http://www.w3.org/1999/xlink" contentStyleType="text/css" height="497px" preserveAspectRatio="none" style="width:562px;height:497px;background:#FFFFFF;" version="1.1" viewBox="0 0 562 497" width="562px" zoomAndPan="magnify"><title>Eksempel p&#229; enkel flyt</title><defs/><g><text fill="#000000" font-family="sans-serif" font-size="14" font-weight="bold" lengthAdjust="spacing" textLength="179.4707" x="184.9812" y="40.6357">Eksempel p&#229; enkel flyt</text><rect fill="#FFFFFF" height="241.8672" style="stroke:#181818;stroke-width:1;" width="10" x="275.5137" y="141.2344"/><rect fill="#FFFFFF" height="241.8672" style="stroke:#181818;stroke-width:1;" width="10" x="522.4331" y="141.2344"/><rect fill="none" height="119.3359" style="stroke:#000000;stroke-width:1.5;" width="305.0137" x="10" y="206.5"/><line style="stroke:#181818;stroke-width:0.5;stroke-dasharray:5.0,5.0;" x1="42" x2="42" y1="131.2344" y2="401.1016"/><line style="stroke:#181818;stroke-width:0.5;stroke-dasharray:5.0,5.0;" x1="280.0137" x2="280.0137" y1="131.2344" y2="401.1016"/><line style="stroke:#181818;stroke-width:0.5;stroke-dasharray:5.0,5.0;" x1="527.4331" x2="527.4331" y1="131.2344" y2="401.1016"/><text fill="#000000" font-family="sans-serif" font-size="14" lengthAdjust="spacing" textLength="39.9355" x="20" y="127.9326">Klient</text><ellipse cx="42.9678" cy="63.4375" fill="#E2E2F0" rx="8" ry="8" style="stroke:#181818;stroke-width:0.5;"/><path d="M42.9678,71.4375 L42.9678,98.4375 M29.9678,79.4375 L55.9678,79.4375 M42.9678,98.4375 L29.9678,113.4375 M42.9678,98.4375 L55.9678,113.4375 " fill="none" style="stroke:#181818;stroke-width:0.5;"/><text fill="#000000" font-family="sans-serif" font-size="14" lengthAdjust="spacing" textLength="39.9355" x="20" y="413.0967">Klient</text><ellipse cx="42.9678" cy="424.8984" fill="#E2E2F0" rx="8" ry="8" style="stroke:#181818;stroke-width:0.5;"/><path d="M42.9678,432.8984 L42.9678,459.8984 M29.9678,440.8984 L55.9678,440.8984 M42.9678,459.8984 L29.9678,474.8984 M42.9678,459.8984 L55.9678,474.8984 " fill="none" style="stroke:#181818;stroke-width:0.5;"/><text fill="#000000" font-family="sans-serif" font-size="14" lengthAdjust="spacing" textLength="22.1484" x="266.4395" y="127.9326">API</text><path d="M260.0137,86.9375 L260.0137,110.9375 M260.0137,98.9375 L277.0137,98.9375 " fill="none" style="stroke:#181818;stroke-width:0.5;"/><ellipse cx="289.0137" cy="98.9375" fill="#E2E2F0" rx="12" ry="12" style="stroke:#181818;stroke-width:0.5;"/><text fill="#000000" font-family="sans-serif" font-size="14" lengthAdjust="spacing" textLength="22.1484" x="266.4395" y="413.0967">API</text><path d="M260.0137,420.3984 L260.0137,444.3984 M260.0137,432.3984 L277.0137,432.3984 " fill="none" style="stroke:#181818;stroke-width:0.5;"/><ellipse cx="289.0137" cy="432.3984" fill="#E2E2F0" rx="12" ry="12" style="stroke:#181818;stroke-width:0.5;"/><text fill="#000000" font-family="sans-serif" font-size="14" lengthAdjust="spacing" textLength="29.6064" x="509.6299" y="127.9326">LMR</text><path d="M509.4331,78.9375 C509.4331,68.9375 527.4331,68.9375 527.4331,68.9375 C527.4331,68.9375 545.4331,68.9375 545.4331,78.9375 L545.4331,104.9375 C545.4331,114.9375 527.4331,114.9375 527.4331,114.9375 C527.4331,114.9375 509.4331,114.9375 509.4331,104.9375 L509.4331,78.9375 " fill="#E2E2F0" style="stroke:#181818;stroke-width:1.5;"/><path d="M509.4331,78.9375 C509.4331,88.9375 527.4331,88.9375 527.4331,88.9375 C527.4331,88.9375 545.4331,88.9375 545.4331,78.9375 " fill="none" style="stroke:#181818;stroke-width:1.5;"/><text fill="#000000" font-family="sans-serif" font-size="14" lengthAdjust="spacing" textLength="29.6064" x="509.6299" y="413.0967">LMR</text><path d="M509.4331,426.3984 C509.4331,416.3984 527.4331,416.3984 527.4331,416.3984 C527.4331,416.3984 545.4331,416.3984 545.4331,426.3984 L545.4331,452.3984 C545.4331,462.3984 527.4331,462.3984 527.4331,462.3984 C527.4331,462.3984 509.4331,462.3984 509.4331,452.3984 L509.4331,426.3984 " fill="#E2E2F0" style="stroke:#181818;stroke-width:1.5;"/><path d="M509.4331,426.3984 C509.4331,436.3984 527.4331,436.3984 527.4331,436.3984 C527.4331,436.3984 545.4331,436.3984 545.4331,426.3984 " fill="none" style="stroke:#181818;stroke-width:1.5;"/><rect fill="#FFFFFF" height="241.8672" style="stroke:#181818;stroke-width:1;" width="10" x="275.5137" y="141.2344"/><rect fill="#FFFFFF" height="241.8672" style="stroke:#181818;stroke-width:1;" width="10" x="522.4331" y="141.2344"/><polygon fill="#181818" points="263.5137,158.3672,273.5137,162.3672,263.5137,166.3672,267.5137,162.3672" style="stroke:#181818;stroke-width:1;"/><line style="stroke:#181818;stroke-width:1;" x1="42.9678" x2="269.5137" y1="162.3672" y2="162.3672"/><text fill="#000000" font-family="sans-serif" font-size="13" lengthAdjust="spacing" textLength="75.2896" x="49.9678" y="157.3013">Autentisere</text><polygon fill="#181818" points="53.9678,187.5,43.9678,191.5,53.9678,195.5,49.9678,191.5" style="stroke:#181818;stroke-width:1;"/><line style="stroke:#181818;stroke-width:1;" x1="47.9678" x2="274.5137" y1="191.5" y2="191.5"/><text fill="#000000" font-family="sans-serif" font-size="13" lengthAdjust="spacing" textLength="105.4219" x="59.9678" y="186.4341">Autentisert (OK)</text><path d="M10,206.5 L74.4429,206.5 L74.4429,213.6328 L64.4429,223.6328 L10,223.6328 L10,206.5 " fill="#EEEEEE" style="stroke:#000000;stroke-width:1.5;"/><rect fill="none" height="119.3359" style="stroke:#000000;stroke-width:1.5;" width="305.0137" x="10" y="206.5"/><text fill="#000000" font-family="sans-serif" font-size="13" font-weight="bold" lengthAdjust="spacing" textLength="19.4429" x="25" y="219.5669">alt</text><text fill="#000000" font-family="sans-serif" font-size="11" font-weight="bold" lengthAdjust="spacing" textLength="136.8501" x="89.4429" y="218.7104">["Registrere Pasient"]</text><polygon fill="#181818" points="263.5137,240.7656,273.5137,244.7656,263.5137,248.7656,267.5137,244.7656" style="stroke:#181818;stroke-width:1;"/><line style="stroke:#181818;stroke-width:1;" x1="42.9678" x2="269.5137" y1="244.7656" y2="244.7656"/><text fill="#000000" font-family="sans-serif" font-size="13" lengthAdjust="spacing" textLength="95.7417" x="49.9678" y="239.6997">S&#248;k p&#229; Pasient</text><polygon fill="#181818" points="53.9678,269.8984,43.9678,273.8984,53.9678,277.8984,49.9678,273.8984" style="stroke:#181818;stroke-width:1;"/><line style="stroke:#181818;stroke-width:1;" x1="47.9678" x2="274.5137" y1="273.8984" y2="273.8984"/><text fill="#000000" font-family="sans-serif" font-size="13" lengthAdjust="spacing" textLength="108.9512" x="59.9678" y="268.8325">Return&#233;r Pasient</text><line style="stroke:#000000;stroke-width:1;stroke-dasharray:2.0,2.0;" x1="10" x2="315.0137" y1="282.8984" y2="282.8984"/><text fill="#000000" font-family="sans-serif" font-size="11" font-weight="bold" lengthAdjust="spacing" textLength="66.4404" x="15" y="293.1089">[Hvis ikke]</text><polygon fill="#181818" points="263.5137,313.8359,273.5137,317.8359,263.5137,321.8359,267.5137,317.8359" style="stroke:#181818;stroke-width:1;"/><line style="stroke:#181818;stroke-width:1;" x1="42.9678" x2="269.5137" y1="317.8359" y2="317.8359"/><text fill="#000000" font-family="sans-serif" font-size="13" lengthAdjust="spacing" textLength="84.0874" x="49.9678" y="312.77">Skriv Pasient</text><polygon fill="#181818" points="263.5137,349.9688,273.5137,353.9688,263.5137,357.9688,267.5137,353.9688" style="stroke:#181818;stroke-width:1;"/><line style="stroke:#181818;stroke-width:1;" x1="42.9678" x2="269.5137" y1="353.9688" y2="353.9688"/><text fill="#000000" font-family="sans-serif" font-size="13" lengthAdjust="spacing" textLength="208.5459" x="49.9678" y="348.9028">Skriv Legemiddeladministrasjon</text><polygon fill="#181818" points="515.4331,379.1016,525.4331,383.1016,515.4331,387.1016,519.4331,383.1016" style="stroke:#181818;stroke-width:1;"/><line style="stroke:#181818;stroke-width:1;" x1="280.5137" x2="521.4331" y1="383.1016" y2="383.1016"/><text fill="#000000" font-family="sans-serif" font-size="13" lengthAdjust="spacing" textLength="212.9194" x="287.5137" y="378.0356">Lagre Legemiddeladministrasjon</text><text fill="#888888" font-family="sans-serif" font-size="10" lengthAdjust="spacing" textLength="275.8008" x="273.6323" y="14.2822">Legemiddeldata fra institusjon til Legemiddelregisteret</text><text fill="#888888" font-family="sans-serif" font-size="10" lengthAdjust="spacing" textLength="147.041" x="201.196" y="486.6807">Folkehelseinstituttet / Vali AS</text><!--SRC=[TP6nJiD038RtUmeh4mo8dG6f0mZK8Af4OdSv9pLtkQlkdA8-40DlmDuNmnSABIfiSVpzl_txikEmneG3j2kqyPL33ntwJCO8YoUeRbocOKqUrhiteE3qg_DRgSoAq5A2ggQU1hQMl4L1w182XwpgCR_40C8U3aYYdhDG8ZNeOfHYS1kzenNfqBrEX0GkuGazmwojZC5dYGdcdYc8MSOnM4nRc2tkJHcvn4m0zKCpWRn1eQdtnSF5TQdW2cQZQCrPfvloHnjxvBWdSFOuFrShBr0rqxf95R30NDZgnBRTVRZfE7lYnBiX6LFOlQSVecI5kmrdOEVerD4btXpWO8-2bPX_yuSZenqubBsnlC3tFgfKjiPUm_pBMlfrmgDIvPy0]--></g></svg>